<svg id="Layer_1" data-name="Layer 1" xmlns="http://www.w3.org/2000/svg" viewBox="0 0 89.44 141.18"><defs><style>.cls-1{fill:none;stroke:#4f907b;stroke-miterlimit:10;stroke-width:2px;}</style></defs><title>perch-owl-logo</title><polyline class="cls-1" points="6.32 41.95 13.65 50.55 13.49 57.92"/><path class="cls-1" d="M12.47,134.07l-.08,5.72c54.35-17.74,63.23-65.6,64.34-88.55,0,0,8.24-10.85,8.26-12.12"/><ellipse class="cls-1" cx="22.78" cy="30.9" rx="17.41" ry="21.8" transform="translate(-9.49 51.7) rotate(-86.4)"/><circle class="cls-1" cx="66.79" cy="34.12" r="2.61"/><circle class="cls-1" cx="22.79" cy="34.12" r="2.61"/><path class="cls-1" d="M27.26,53h0c7.5.14,16.66,7.66,17.41,18.28,0,0-4.5,49-36.75,65.43L9.36,66.1C9.41,57.07,21.16,52.89,27.26,53Z"/><path class="cls-1" d="M12.82,15.17c5-4.77,7.94-6,12.77-7.22a54.71,54.71,0,0,0-7.48-6.23,234.72,234.72,0,0,0,61.46,0l-12,6.65c4.07,1,8.23,4.15,11.31,7.13"/><path class="cls-1" d="M33.5,109.22S68.64,92.57,75.19,64.8"/><path class="cls-1" d="M40.14,92.57s25.45-12,36-34.64"/><ellipse class="cls-1" cx="66.7" cy="30.55" rx="21.8" ry="17.41" transform="translate(-3.38 8.86) rotate(-7.41)"/><path class="cls-1" d="M46.23,25.64a54.93,54.93,0,0,1,41.94-.19"/><path class="cls-1" d="M1.66,25.64s18.51-9.38,41.44-.19"/></svg>